                    =!DK GROUP HD BLURAY RELEAESEES!=

===================================================================================

      	
Transformers Dark Of The Moon(2011)1080p BDRip In[Hindi-Eng-Tamil-Telugu]6CH-DTS-AC3 By !!!dip

===================================================================================

Storyline:

Autobots Bummblebee, Rachet, Ironhide and Sideswipe led by Optimus Prime, are back in action taking on the evil Decepticons, who are eager to avenge their recent defeat. The Autobots and Decepticons become involved in a perilous space race between the U.S. and Russia, to reach a hidden Cybertronian spacecraft on the moon and learn its secrets, and once again Sam Witwicky has to come to the aid of his robot friends. New villain, Shockwave, who rules Cybertron, is on the scene while the Autobots and Decepticons continue to battle it out on Earth. Written by Kris S.  


Cast:

Shia LaBeouf...............Sam Witwicky
Josh Duhamel...............Lennox
John Turturro..............Simmons
Tyrese Gibson..............Epps
Rosie Huntington-Whiteley..Carly Spencer
Patrick Dempsey............Dylan
Rich Hutchman..............Engineer
Frances McDormand..........Mearing
Kevin Dunn.................Ron Witwicky
John Malkovich.............Bruce Brazos
Julie White................Judy Witwicky
Alan Tudyk.................Dutch
Ken Jeong..................Jerry Wang
Glenn Morshower............General Morshower
Lester Speight.............Eddie


Directors :Michael Bay
Writers :Ehren Kruger
Stars:Shia LaBeouf, Rosie Huntington-Whiteley and Tyrese Gibson
Genre:Action | Adventure | Sci-Fi
Language:[English-Hindi-Tamil-Telugu]6CH-DTS-AC3
Format :Color, Dubbed,Widescreen
Release Date :29 June 2011 (India)
Run Time :02H:28M:03S
Encoder:Deep Shikha



Video Specifications:

Video
ID : 1
Format : AVC
Format/Info : Advanced Video Codec
Format profile : High@L4.1
Format settings, CABAC : Yes
Format settings, ReFrames : 3 frames
Muxing mode : Header stripping
Codec ID : V_MPEG4/ISO/AVC
Duration : 2h 28mn
Bit rate mode : Variable
Bit rate : 3 000 Kbps
Maximum bit rate : 62.5 Mbps
Width : 1 920 pixels
Height : 800 pixels
Display aspect ratio : 2.40:1
Frame rate : 25.000 fps
Original frame rate : 23.976 fps
Color space : YUV
Chroma subsampling : 4:2:0
Bit depth : 8 bits
Scan type : Progressive
Bits/(Pixel*Frame) : 0.078
Stream size : 3.17 GiB (98%)
Title : !!!dip
Team : DK Group HD Bluray Releases



Audio Specifications:


Audio #1
ID : 1
Format : AAC
Format/Info : Advanced Audio Codec
Format profile : LC
Codec ID : A_AAC
Duration : 2h 28mn
Channel(s) : 6 channels
Channel positions : Front: L C R, Side: L R, LFE
Sampling rate : 48.0 KHz
Compression mode : Lossy
Title : !!!dip
Language : English


Audio #2
ID : 2
Format : AC-3
Format/Info : Audio Coding 3
Mode extension : CM (complete main)
Muxing mode : Header stripping
Codec ID : A_AC3
Duration : 2h 27mn
Bit rate mode : Constant
Bit rate : 448 Kbps
Channel(s) : 6 channels
Channel positions : Front: L C R, Side: L R, LFE
Sampling rate : 48.0 KHz
Bit depth : 16 bits
Compression mode : Lossy
Stream size : 474 MiB (100%)
Title : !!!dip
Language : Hindi


Audio #2
ID : 3
Format : AC-3
Format/Info : Audio Coding 3
Mode extension : CM (complete main)
Muxing mode : Header stripping
Codec ID : A_AC3
Duration : 2h 28mn
Bit rate mode : Constant
Bit rate : 640 Kbps
Channel(s) : 6 channels
Channel positions : Front: L C R, Side: L R, LFE
Sampling rate : 48.0 KHz
Bit depth : 16 bits
Compression mode : Lossy
Stream size : 678 MiB (96%)
Title : !!!dip
Language : Hindi[DTS]

Audio
ID : 4
Format : AC-3
Format/Info : Audio Coding 3
Mode extension : CM (complete main)
Muxing mode : Header stripping
Codec ID : A_AC3
Duration : 2h 27mn
Bit rate mode : Constant
Bit rate : 448 Kbps
Channel(s) : 6 channels
Channel positions : Front: L C R, Side: L R, LFE
Sampling rate : 48.0 KHz
Bit depth : 16 bits
Compression mode : Lossy
Stream size : 474 MiB (100%)
Title : !!!dip
Language : Tamil

Audio
ID : 5
Format : AC-3
Format/Info : Audio Coding 3
Mode extension : CM (complete main)
Muxing mode : Header stripping
Codec ID : A_AC3
Duration : 2h 27mn
Bit rate mode : Constant
Bit rate : 448 Kbps
Channel(s) : 6 channels
Channel positions : Front: L C R, Side: L R, LFE
Sampling rate : 48.0 KHz
Bit depth : 16 bits
Compression mode : Lossy
Stream size : 474 MiB (100%)
Title : !!!dip
Language : Telugu




SAMPLE IMAGE:

    
http://www.pix2links.com/image/1twQ.jpg
 
http://www.pix2links.com/image/c9zG1.jpg
 
http://www.pix2links.com/image/IpC6i.jpg
 
http://www.pix2links.com/image/NUVXx.jpg
 
http://www.pix2links.com/image/Zy0hb.jpg


VIDEO SAMPLE IS AVAILABLE

				
		